<?xml version="1.0" encoding="utf-8"?>
<svg xmlns="http://www.w3.org/2000/svg" viewBox="0 0 429.1 199.2">
<style>.st0{fill:#FFFFFF;}</style>
<g>
	<g>
		<path class="st0" d="M344,84h-8.3v47.9h8.3V84z"/>
		<path class="st0" d="M339.7,75.9c1.5,0,2.8-0.5,3.5-1.3c0.8-0.8,1.3-2,1.3-3.3s-0.5-2.5-1.3-3.3c-0.8-0.8-2-1.3-3.5-1.3
			s-2.8,0.5-3.5,1.3c-0.8,1-1.3,2-1.3,3.3s0.5,2.5,1.3,3.3C336.9,75.6,338.1,75.9,339.7,75.9z"/>
		<path class="st0" d="M320.4,103.6c-2-2.8-4.8-4.5-8.3-5.5c3-1.3,5.3-3,7.1-5.3c1.8-2.3,2.5-5,2.5-8.1c0-5.5-1.8-9.8-5.3-12.8
			c-3.5-2.8-8.9-4.3-15.9-4.3h-21.2v64.2h22.5c6.8,0,12.1-1.8,15.9-5c3.8-3.3,5.6-7.8,5.6-13.6C323.5,109.7,322.5,106.4,320.4,103.6
			z M288.1,74.4h12.6c4.3,0,7.3,0.8,9.4,2.5c2,1.5,3,4.3,3,7.8c0,3.3-1,5.8-3.3,7.6c-2.3,1.8-5.3,2.8-8.8,2.8h-12.9V74.4L288.1,74.4
			z M311.3,122c-2.3,2-5.3,3-9.4,3h-14.2v-23.2H302c8.6,0,12.6,3.8,12.6,11.6C314.9,117,313.6,120,311.3,122z"/>
		<path class="st0" d="M210.7,75.9c1.5,0,2.8-0.5,3.5-1.3c0.8-0.8,1.3-2,1.3-3.3s-0.5-2.5-1.3-3.3c-0.8-0.8-2-1.3-3.5-1.3
			s-2.8,0.5-3.5,1.3c-0.8,1-1.3,2-1.3,3.3s0.5,2.5,1.3,3.3C207.9,75.6,209.2,75.9,210.7,75.9z"/>
		<path class="st0" d="M265.8,131.8v-31.5c0-11.3-5.3-17.1-15.4-17.1c-5.8,0-10.6,2.3-14.4,6.8l-0.2-6H228v47.9h8.3v-34
			c1-2.3,2.8-4.3,4.8-5.5c2-1.3,4.3-2,7.1-2c3.3,0,5.8,0.8,7.3,2.5s2.3,4.3,2.3,7.6V132h8C265.8,132,265.8,131.8,265.8,131.8z"/>
		<path class="st0" d="M214.7,84h-8.3v47.9h8.3V84z"/>
		<g>
			<path class="st0" d="M421.3,124.5c-0.8-1-1.3-2.5-1.3-4.3v-30h9.1v-6.3H420V72.3h-8.3v11.6h-8.9v6.3h8.9v29.7c0,4,1,7.3,2.8,9.3
				c1.8,2,4.6,3.3,8.3,3.3c2,0,4-0.3,6.3-1V125c-1.8,0.2-3,0.5-3.8,0.5C423.4,125.8,422.1,125.3,421.3,124.5z"/>
		</g>
		<path class="st0" d="M376.6,83.2c-4.3,0-8.1,1-11.4,3c-3.3,2-5.8,5-7.8,8.6c-1.8,3.8-2.8,8.1-2.8,12.6v0.5c0,7.6,2,13.4,6.1,17.9
			c4,4.5,9.4,6.8,15.9,6.8c4.3,0,8.1-1,11.4-3c3.3-2,5.8-5,7.6-8.6c1.8-3.8,2.8-7.8,2.8-12.6v-0.5c0-7.6-2-13.6-6.1-18.1
			C388.5,85.5,383.2,83.2,376.6,83.2z M386.7,121.2c-2.5,3.3-5.8,4.8-9.9,4.8s-7.6-1.5-9.9-4.8c-2.5-3.3-3.8-7.6-3.8-12.8
			c0-6,1.3-10.6,3.8-13.9s5.8-4.8,9.9-4.8s7.6,1.8,9.9,5c2.5,3.3,3.8,7.6,3.8,12.8C390.5,113.4,389.2,118,386.7,121.2z"/>
	</g>
	<g>
		<path class="st0" d="M82.3,174.4l0.6-66.8c5.6-6.5,20.2-26,20.5-53.2C103.7,20.6,81.9,0,81.9,0S59.7,20.2,59.4,53.7
			c-0.3,27.5,14,47.2,19.5,53.8l-0.6,66.8c-6.1,1-10.7,5.9-10.7,12.2c-0.1,7.1,5.5,12.6,12.5,12.7c7.1,0.1,12.7-5.4,12.8-12.5
			C92.9,180.5,88.4,175.4,82.3,174.4z M80.1,195c-4.6,0-8.3-3.9-8.3-8.4s3.9-8.3,8.4-8.2c4.6,0,8.3,3.9,8.3,8.4S84.6,195,80.1,195z"/>
		<path class="st0" d="M68.4,149.5l0.5-0.5l0.3-31.7c0,0-0.2-0.8-0.5-2.3c-0.2-0.8-0.5-1.5-0.7-2.5c-0.5-1.3-1-2.8-1.7-4.6
			c-0.2-0.8-0.7-1.8-1.2-2.5c-0.7-1.3-1.5-2.8-2.2-4.3c-0.5-1-1.2-2-1.7-3c-0.2-0.5-0.7-1-1-1.5c-2.5-3.5-5.5-7.4-9.3-10.7
			c-2.3-2-4.5-3.8-7.3-5.6c-1.3-0.8-2.8-1.8-4-2.3c-1.3-0.8-2.8-1.3-4-2.1c-4-1.8-7.8-3.1-11.6-3.9c-1.8-0.5-3.5-0.8-5.3-1.1
			c-0.5,0-1-0.3-1.8-0.3C7,69.5,0,71.2,0,71.2s0.2,1.5,1,3.8c0.2,0.5,0.2,1.3,0.5,2c1.2,3.8,3.5,9.1,7.2,14.7c0.3,0.5,0.8,1,1,1.5
			c3.8,5.1,8.5,10.4,15.3,14.8c6.8,4.3,13.6,6.9,19.9,8.5c1.8,0.5,3.8,0.8,5.6,1.1c2.3,0.3,4.5,0.5,6.6,0.6c1,0,2,0,3,0s1.8,0,2.5,0
			c1,0,2,0,3-0.2l-0.3,29.5l-9.4,9.5c-2-1.3-4.5-1.8-7.3-1.3c-4.3,0.7-7.9,4.5-8.4,8.7c-1.1,7,4.9,12.9,12,11.9
			c4.6-0.7,8.1-4.2,8.9-8.7c0.5-2.8-0.2-5.5-1.7-7.6L68.4,149.5z M50.2,172.8c-3.8,0-6.8-3.1-6.8-6.9c0-3.8,3.1-6.8,6.9-6.8
			s6.8,3.1,6.8,6.9C57.1,169.9,54,172.9,50.2,172.8z"/>
		<path class="st0" d="M151.5,72.3c-3.8,0-8.3,0.3-13.2,1.3c-6.1,1.3-12.9,3.8-19.7,8.1c-2.8,1.8-5.1,3.5-7.3,5.5
			c-3.8,3.5-7.1,7.1-9.4,10.6c-0.3,0.5-0.8,1-1,1.5c-0.8,1-1.3,2-1.8,3c-0.8,1.5-1.5,3-2.3,4.3c-0.5,1-0.8,1.8-1.3,2.5
			c-0.8,1.8-1.3,3.3-1.8,4.5c-0.2,1-0.5,1.8-0.8,2.5c-0.5,1.5-0.5,2.3-0.5,2.3v31.5l0.5,0.5l9.9,10.1c-1.3,1.8-2,3.8-2,6
			c0,5.8,4.8,10.6,10.6,10.6s10.6-4.8,10.6-10.6s-4.8-10.6-10.6-10.6c-2,0-3.8,0.5-5.3,1.5l-9.4-9.6v-28.7c1,0,1.8,0.2,3,0.2
			c0.8,0,1.8,0,2.5,0c1,0,1.8,0,3,0c2,0,4.3-0.2,6.6-0.5c1.8-0.2,3.5-0.5,5.6-1c6.3-1.5,13.2-3.8,20-8.3c4.8-3,8.6-6.5,11.6-10.1
			c3.5-4,6.3-8.1,8.3-11.8c1.5-2.8,2.5-5.5,3.3-7.6c0.3-0.3,0.3-0.8,0.3-1c1.3-3.5,1.5-5.5,1.5-5.5S158.1,72.3,151.5,72.3z
			 M111.7,160.3c3.5,0,6.6,2.9,6.6,6.6c0,3.7-2.9,6.6-6.6,6.6s-6.6-2.9-6.6-6.6C105,163.2,108,160.3,111.7,160.3z"/>
	</g>
	<g>
		<path class="st0" d="M59.7,159.9l8.9-10.3l0.5-0.5l0.3-31.7c0,0-0.2-0.8-0.5-2.3c-0.2-0.8-0.5-1.5-0.7-2.5c-0.5-1.3-1-2.8-1.7-4.6
			c-0.2-0.8-0.7-1.8-1.2-2.5c-0.7-1.3-1.5-2.8-2.2-4.3c-0.5-1-1.2-2-1.7-3c-0.2-0.5-0.7-1-1-1.5c-2.5-3.5-5.5-7.4-9.3-10.7
			c-2.3-2-4.5-3.8-7.3-5.6c-1.3-0.8-2.8-1.8-4-2.3c-1.3-0.8-2.8-1.3-4-2.1c-4-1.8-7.8-3.1-11.6-3.9c-1.8-0.5-3.5-0.8-5.3-1.1
			c-0.5,0-1-0.3-1.8-0.3c-9.9-1.1-16.9,0.6-16.9,0.6s0.2,1.5,1,3.8c0.2,0.5,0.2,1.3,0.5,2c1.2,3.8,3.5,9.1,7.2,14.7
			c0.3,0.5,0.8,1,1,1.5c3.8,5.1,8.5,10.4,15.3,14.8c6.8,4.3,13.6,6.9,19.9,8.5c1.8,0.5,3.8,0.8,5.6,1.1c2.3,0.3,4.5,0.5,6.6,0.6h5.5
			c1,0,2,0,3-0.2l-0.3,29.5l-9.3,9.4c-1.5-0.8-3.1-1.2-4.9-1.2c-5.8,0-10.6,4.7-10.6,10.6S45.4,177,51.3,177
			c5.8,0,10.6-4.7,10.6-10.6C61.9,163.9,61.1,161.6,59.7,159.9L59.7,159.9z M51.3,172.9c-3.6,0-6.6-3-6.6-6.6s3-6.6,6.6-6.6
			s6.6,3,6.6,6.6S55,172.9,51.3,172.9z"/>
		<path class="st0" d="M151.7,72.3c-3.8,0-8.3,0.3-13.2,1.3c-6.1,1.3-12.9,3.8-19.7,8.1c-2.8,1.8-5.1,3.5-7.3,5.5
			c-3.8,3.5-7.1,7.1-9.4,10.6c-0.3,0.5-0.8,1-1,1.5c-0.8,1-1.3,2-1.8,3c-0.8,1.5-1.5,3-2.3,4.3c-0.5,1-0.8,1.8-1.3,2.5
			c-0.8,1.8-1.3,3.3-1.8,4.5c-0.2,1-0.5,1.8-0.8,2.5c-0.5,1.5-0.5,2.3-0.5,2.3v31.5l0.5,0.5l9.8,10c-1.1,1.7-1.8,3.7-1.8,5.8
			c0,5.8,4.7,10.6,10.6,10.6s10.6-4.7,10.6-10.6s-4.7-10.6-10.6-10.6c-2,0-4,0.6-5.6,1.6l-9.3-9.5V119c1,0,1.8,0.2,3,0.2h5.5
			c2,0,4.3-0.2,6.6-0.5c1.8-0.2,3.5-0.5,5.6-1c6.3-1.5,13.2-3.8,20-8.3c4.8-3,8.6-6.5,11.6-10.1c3.5-4,6.3-8.1,8.3-11.8
			c1.5-2.8,2.5-5.5,3.3-7.6c0.3-0.3,0.3-0.8,0.3-1c1.3-3.5,1.5-5.5,1.5-5.5S158.3,72.3,151.7,72.3z M111.7,159.7
			c3.6,0,6.6,3,6.6,6.6s-3,6.6-6.6,6.6s-6.6-3-6.6-6.6C105.1,162.7,108.1,159.7,111.7,159.7z"/>
		<path class="st0" d="M82.5,174.4L82.5,174.4l0.6-66.8c5.6-6.5,20.2-26,20.5-53.2C103.9,20.6,82.1,0,82.1,0S59.9,20.2,59.6,53.7
			c-0.3,27.5,14,47.2,19.5,53.8l-0.6,66.8c0,0,0,0,0.1,0c-6,0.9-10.7,6.1-10.7,12.4c0,6.9,5.6,12.5,12.5,12.5s12.5-5.6,12.5-12.5
			C92.8,180.6,88.3,175.4,82.5,174.4z M80.3,194.5c-4.3,0-7.8-3.5-7.8-7.8s3.5-7.8,7.8-7.8s7.8,3.5,7.8,7.8S84.6,194.5,80.3,194.5z"/>
	</g>
</g>
</svg>
