<?xml version="1.0" encoding="utf-8"?>
<!-- Generator: Adobe Illustrator 25.2.3, SVG Export Plug-In . SVG Version: 6.00 Build 0)  -->
<svg version="1.1" id="Capa_1" xmlns="http://www.w3.org/2000/svg" xmlns:xlink="http://www.w3.org/1999/xlink" x="0px" y="0px"
	 viewBox="0 0 429.1 199.2" style="enable-background:new 0 0 429.1 199.2;" xml:space="preserve">
<style type="text/css">
	.st0{fill:#009BE5;}
	.st1{opacity:0.35;}
	.st2{fill:#FFFFFF;}
</style>
<rect x="2384.1" y="-5555" class="st0" width="4142" height="4142"/>
<g class="st1">
	<path class="st2" d="M-477.6-5256.6l10.2-1137h-87.1l-10.2,1134.8c-132.8,21.8-233,128.5-233,265.7
		c-2.2,154.6,119.8,274.4,272.2,276.5c154.6,2.2,276.5-117.6,278.7-272.2C-246.8-5123.8-344.8-5234.8-477.6-5256.6z M-525.5-4808
		c-100.2,0-180.7-84.9-180.7-182.9s84.9-180.7,182.9-178.6c100.2,0,180.7,84.9,180.7,182.9S-427.5-4808-525.5-4808z"/>
	<path class="st2" d="M-842.2-6393.6l-5.6,551.2l-204.7,206.9c-43.6-28.3-98-39.2-159-28.3c-93.6,15.2-172,98-182.9,189.4
		c-24,152.4,106.7,280.9,261.3,259.1c100.2-15.2,176.4-91.5,193.8-189.4c10.9-61-4.4-119.8-37-165.5l196-228.6l10.9-10.9l5.5-583.9
		L-842.2-6393.6L-842.2-6393.6z M-1176.6-5291.4c-82.7,0-148.1-67.5-148.1-150.3s67.5-148.1,150.3-148.1
		c82.7,0,148.1,67.5,148.1,150.3C-1026.4-5354.6-1093.9-5289.3-1176.6-5291.4z"/>
	<path class="st2" d="M156.1-5659.4c-43.6,0-82.7,10.9-115.4,32.7l-204.7-209v-557.7h-93.7v603.5l10.9,10.9l215.6,219.9
		c-28.3,39.2-43.6,82.7-43.6,130.7c0,126.3,104.5,230.8,230.8,230.8s230.8-104.5,230.8-230.8
		C386.9-5554.9,282.4-5659.4,156.1-5659.4z M162.6-5276.2c-80.6,0-143.7-63.1-143.7-143.7c-2.2-80.6,63.1-143.7,143.7-143.7
		c76.2,0,143.7,63.1,143.7,143.7S243.2-5276.2,162.6-5276.2z"/>
</g>
<g>
	<path class="st2" d="M-3602.2-3238.3l192.8-224.9l10.9-10.9l6.5-690.3c0,0-4.4-17.4-10.9-50.1c-4.4-17.4-10.9-32.7-15.2-54.4
		c-10.9-28.3-21.8-61-37-100.2c-4.4-17.4-15.2-39.2-26.1-54.4c-15.2-28.3-32.7-61-47.9-93.6c-10.9-21.8-26.1-43.6-37-65.3
		c-4.4-10.9-15.2-21.8-21.8-32.7c-54.4-76.2-119.8-161.1-202.5-233c-50.1-43.6-98-82.7-159-121.9c-28.3-17.4-61-39.2-87.1-50.1
		c-28.3-17.4-61-28.3-87.1-45.7c-87.1-39.2-169.8-67.5-252.6-84.9c-39.2-10.9-76.2-17.4-115.4-24c-10.9,0-21.8-6.5-39.2-6.5
		c-215.6-24-368,13.1-368,13.1s4.4,32.7,21.8,82.7c4.4,10.9,4.4,28.3,10.9,43.6c26.1,82.7,76.2,198.2,156.8,320.1
		c6.5,10.9,17.4,21.8,21.8,32.7c82.7,111.1,185.1,226.5,333.2,322.3c148.1,93.6,296.1,150.3,433.3,185.1
		c39.2,10.9,82.7,17.4,121.9,24c50.1,6.5,98,10.9,143.7,13.1h119.8c21.8,0,43.6,0,65.3-4.4l-6.5,642.4l-202.1,204.2
		c-31.8-16.6-67.9-25.9-106.3-25.9c-127.3,0-230.4,103.2-230.4,230.4s103.2,230.4,230.4,230.4c127.3,0,230.4-103.2,230.4-230.4
		c0-52.8-17.8-101.4-47.6-140.2C-3602.3-3238.3-3602.3-3238.3-3602.2-3238.3z M-3785.2-2954.4c-79.4,0-143.7-64.3-143.7-143.7
		s64.3-143.7,143.7-143.7c79.4,0,143.7,64.3,143.7,143.7S-3705.8-2954.4-3785.2-2954.4z"/>
	<path class="st2" d="M-1599.9-5144.3c-82.7,0-180.7,6.5-287.4,28.3c-132.8,28.3-280.9,82.7-429,176.4
		c-61,39.2-111.1,76.2-159,119.8c-82.7,76.2-154.6,154.6-204.7,230.8c-6.5,10.9-17.4,21.8-21.8,32.7c-17.4,21.8-28.3,43.6-39.2,65.3
		c-17.4,32.7-32.7,65.3-50.1,93.6c-10.9,21.8-17.4,39.2-28.3,54.4c-17.4,39.2-28.3,71.9-39.2,98c-4.4,21.8-10.9,39.2-17.4,54.4
		c-10.9,32.7-10.9,50.1-10.9,50.1v685.9l10.9,10.9l214,218.3c-24.2,36.5-38.3,80.2-38.3,127.2c0,127.3,103.2,230.4,230.4,230.4
		s230.4-103.2,230.4-230.4s-103.2-230.4-230.4-230.4c-44.5,0-86.1,12.7-121.4,34.5l-202-206.3v-625c21.8,0,39.2,4.4,65.3,4.4h119.8
		c43.6,0,93.6-4.4,143.7-10.9c39.2-4.4,76.2-10.9,121.9-21.8c137.2-32.7,287.4-82.7,435.5-180.7c104.5-65.3,187.3-141.5,252.6-219.9
		c76.2-87.1,137.2-176.4,180.7-257c32.7-61,54.4-119.8,71.9-165.5c6.5-6.5,6.5-17.4,6.5-21.8c28.3-76.2,32.7-119.8,32.7-119.8
		S-1456.1-5144.3-1599.9-5144.3z M-2469.8-3241.8c79.4,0,143.7,64.3,143.7,143.7s-64.3,143.7-143.7,143.7s-143.7-64.3-143.7-143.7
		S-2549.2-3241.8-2469.8-3241.8z"/>
	<path class="st2" d="M-3106.8-2921l0.1-0.1l13.1-1454.5c121.9-141.5,439.9-566.2,446.4-1158.5c6.5-736-468.2-1184.6-468.2-1184.6
		s-483.4,439.9-489.9,1169.3c-6.5,598.8,304.9,1027.8,424.6,1171.5l-13.1,1454.5c0.4,0.3,0.8,0.7,1.2,1
		c-131.6,18.9-232.7,132.1-232.7,269c0,150.1,121.7,271.8,271.8,271.8s271.8-121.7,271.8-271.8
		C-2881.8-2787.4-2979-2898.9-3106.8-2921z M-3153.6-2483.7c-93.6,0-169.5-75.9-169.5-169.5s75.9-169.5,169.5-169.5
		s169.5,75.9,169.5,169.5C-2984-2559.6-3059.9-2483.7-3153.6-2483.7z"/>
</g>
<g>
	<g>
		<path class="st0" d="M344,84h-8.3v47.9h8.3V84z"/>
		<path class="st0" d="M339.7,75.9c1.5,0,2.8-0.5,3.5-1.3c0.8-0.8,1.3-2,1.3-3.3s-0.5-2.5-1.3-3.3c-0.8-0.8-2-1.3-3.5-1.3
			s-2.8,0.5-3.5,1.3c-0.8,1-1.3,2-1.3,3.3s0.5,2.5,1.3,3.3C336.9,75.6,338.1,75.9,339.7,75.9z"/>
		<path class="st0" d="M320.4,103.6c-2-2.8-4.8-4.5-8.3-5.5c3-1.3,5.3-3,7.1-5.3c1.8-2.3,2.5-5,2.5-8.1c0-5.5-1.8-9.8-5.3-12.8
			c-3.5-2.8-8.9-4.3-15.9-4.3h-21.2v64.2h22.5c6.8,0,12.1-1.8,15.9-5c3.8-3.3,5.6-7.8,5.6-13.6C323.5,109.7,322.5,106.4,320.4,103.6
			z M288.1,74.4h12.6c4.3,0,7.3,0.8,9.4,2.5c2,1.5,3,4.3,3,7.8c0,3.3-1,5.8-3.3,7.6c-2.3,1.8-5.3,2.8-8.8,2.8h-12.9V74.4L288.1,74.4
			z M311.3,122c-2.3,2-5.3,3-9.4,3h-14.2v-23.2H302c8.6,0,12.6,3.8,12.6,11.6C314.9,117,313.6,120,311.3,122z"/>
		<path class="st0" d="M210.7,75.9c1.5,0,2.8-0.5,3.5-1.3c0.8-0.8,1.3-2,1.3-3.3s-0.5-2.5-1.3-3.3c-0.8-0.8-2-1.3-3.5-1.3
			s-2.8,0.5-3.5,1.3c-0.8,1-1.3,2-1.3,3.3s0.5,2.5,1.3,3.3C207.9,75.6,209.2,75.9,210.7,75.9z"/>
		<path class="st0" d="M265.8,131.8v-31.5c0-11.3-5.3-17.1-15.4-17.1c-5.8,0-10.6,2.3-14.4,6.8l-0.2-6H228v47.9h8.3v-34
			c1-2.3,2.8-4.3,4.8-5.5c2-1.3,4.3-2,7.1-2c3.3,0,5.8,0.8,7.3,2.5s2.3,4.3,2.3,7.6V132h8C265.8,132,265.8,131.8,265.8,131.8z"/>
		<path class="st0" d="M214.7,84h-8.3v47.9h8.3V84z"/>
		<g>
			<path class="st0" d="M421.3,124.5c-0.8-1-1.3-2.5-1.3-4.3v-30h9.1v-6.3H420V72.3h-8.3v11.6h-8.9v6.3h8.9v29.7c0,4,1,7.3,2.8,9.3
				c1.8,2,4.6,3.3,8.3,3.3c2,0,4-0.3,6.3-1V125c-1.8,0.2-3,0.5-3.8,0.5C423.4,125.8,422.1,125.3,421.3,124.5z"/>
		</g>
		<path class="st0" d="M376.6,83.2c-4.3,0-8.1,1-11.4,3c-3.3,2-5.8,5-7.8,8.6c-1.8,3.8-2.8,8.1-2.8,12.6v0.5c0,7.6,2,13.4,6.1,17.9
			c4,4.5,9.4,6.8,15.9,6.8c4.3,0,8.1-1,11.4-3c3.3-2,5.8-5,7.6-8.6c1.8-3.8,2.8-7.8,2.8-12.6v-0.5c0-7.6-2-13.6-6.1-18.1
			C388.5,85.5,383.2,83.2,376.6,83.2z M386.7,121.2c-2.5,3.3-5.8,4.8-9.9,4.8s-7.6-1.5-9.9-4.8c-2.5-3.3-3.8-7.6-3.8-12.8
			c0-6,1.3-10.6,3.8-13.9s5.8-4.8,9.9-4.8s7.6,1.8,9.9,5c2.5,3.3,3.8,7.6,3.8,12.8C390.5,113.4,389.2,118,386.7,121.2z"/>
	</g>
	<g>
		<path class="st0" d="M82.3,174.4l0.6-66.8c5.6-6.5,20.2-26,20.5-53.2C103.7,20.6,81.9,0,81.9,0S59.7,20.2,59.4,53.7
			c-0.3,27.5,14,47.2,19.5,53.8l-0.6,66.8c-6.1,1-10.7,5.9-10.7,12.2c-0.1,7.1,5.5,12.6,12.5,12.7c7.1,0.1,12.7-5.4,12.8-12.5
			C92.9,180.5,88.4,175.4,82.3,174.4z M80.1,195c-4.6,0-8.3-3.9-8.3-8.4s3.9-8.3,8.4-8.2c4.6,0,8.3,3.9,8.3,8.4S84.6,195,80.1,195z"
			/>
		<path class="st0" d="M68.4,149.5l0.5-0.5l0.3-31.7c0,0-0.2-0.8-0.5-2.3c-0.2-0.8-0.5-1.5-0.7-2.5c-0.5-1.3-1-2.8-1.7-4.6
			c-0.2-0.8-0.7-1.8-1.2-2.5c-0.7-1.3-1.5-2.8-2.2-4.3c-0.5-1-1.2-2-1.7-3c-0.2-0.5-0.7-1-1-1.5c-2.5-3.5-5.5-7.4-9.3-10.7
			c-2.3-2-4.5-3.8-7.3-5.6c-1.3-0.8-2.8-1.8-4-2.3c-1.3-0.8-2.8-1.3-4-2.1c-4-1.8-7.8-3.1-11.6-3.9c-1.8-0.5-3.5-0.8-5.3-1.1
			c-0.5,0-1-0.3-1.8-0.3C7,69.5,0,71.2,0,71.2s0.2,1.5,1,3.8c0.2,0.5,0.2,1.3,0.5,2c1.2,3.8,3.5,9.1,7.2,14.7c0.3,0.5,0.8,1,1,1.5
			c3.8,5.1,8.5,10.4,15.3,14.8c6.8,4.3,13.6,6.9,19.9,8.5c1.8,0.5,3.8,0.8,5.6,1.1c2.3,0.3,4.5,0.5,6.6,0.6c1,0,2,0,3,0s1.8,0,2.5,0
			c1,0,2,0,3-0.2l-0.3,29.5l-9.4,9.5c-2-1.3-4.5-1.8-7.3-1.3c-4.3,0.7-7.9,4.5-8.4,8.7c-1.1,7,4.9,12.9,12,11.9
			c4.6-0.7,8.1-4.2,8.9-8.7c0.5-2.8-0.2-5.5-1.7-7.6L68.4,149.5z M50.2,172.8c-3.8,0-6.8-3.1-6.8-6.9c0-3.8,3.1-6.8,6.9-6.8
			s6.8,3.1,6.8,6.9C57.1,169.9,54,172.9,50.2,172.8z"/>
		<path class="st0" d="M151.5,72.3c-3.8,0-8.3,0.3-13.2,1.3c-6.1,1.3-12.9,3.8-19.7,8.1c-2.8,1.8-5.1,3.5-7.3,5.5
			c-3.8,3.5-7.1,7.1-9.4,10.6c-0.3,0.5-0.8,1-1,1.5c-0.8,1-1.3,2-1.8,3c-0.8,1.5-1.5,3-2.3,4.3c-0.5,1-0.8,1.8-1.3,2.5
			c-0.8,1.8-1.3,3.3-1.8,4.5c-0.2,1-0.5,1.8-0.8,2.5c-0.5,1.5-0.5,2.3-0.5,2.3v31.5l0.5,0.5l9.9,10.1c-1.3,1.8-2,3.8-2,6
			c0,5.8,4.8,10.6,10.6,10.6s10.6-4.8,10.6-10.6s-4.8-10.6-10.6-10.6c-2,0-3.8,0.5-5.3,1.5l-9.4-9.6v-28.7c1,0,1.8,0.2,3,0.2
			c0.8,0,1.8,0,2.5,0c1,0,1.8,0,3,0c2,0,4.3-0.2,6.6-0.5c1.8-0.2,3.5-0.5,5.6-1c6.3-1.5,13.2-3.8,20-8.3c4.8-3,8.6-6.5,11.6-10.1
			c3.5-4,6.3-8.1,8.3-11.8c1.5-2.8,2.5-5.5,3.3-7.6c0.3-0.3,0.3-0.8,0.3-1c1.3-3.5,1.5-5.5,1.5-5.5S158.1,72.3,151.5,72.3z
			 M111.7,160.3c3.5,0,6.6,2.9,6.6,6.6c0,3.7-2.9,6.6-6.6,6.6s-6.6-2.9-6.6-6.6C105,163.2,108,160.3,111.7,160.3z"/>
	</g>
	<g>
		<path class="st0" d="M59.7,159.9l8.9-10.3l0.5-0.5l0.3-31.7c0,0-0.2-0.8-0.5-2.3c-0.2-0.8-0.5-1.5-0.7-2.5c-0.5-1.3-1-2.8-1.7-4.6
			c-0.2-0.8-0.7-1.8-1.2-2.5c-0.7-1.3-1.5-2.8-2.2-4.3c-0.5-1-1.2-2-1.7-3c-0.2-0.5-0.7-1-1-1.5c-2.5-3.5-5.5-7.4-9.3-10.7
			c-2.3-2-4.5-3.8-7.3-5.6c-1.3-0.8-2.8-1.8-4-2.3c-1.3-0.8-2.8-1.3-4-2.1c-4-1.8-7.8-3.1-11.6-3.9c-1.8-0.5-3.5-0.8-5.3-1.1
			c-0.5,0-1-0.3-1.8-0.3c-9.9-1.1-16.9,0.6-16.9,0.6s0.2,1.5,1,3.8c0.2,0.5,0.2,1.3,0.5,2c1.2,3.8,3.5,9.1,7.2,14.7
			c0.3,0.5,0.8,1,1,1.5c3.8,5.1,8.5,10.4,15.3,14.8c6.8,4.3,13.6,6.9,19.9,8.5c1.8,0.5,3.8,0.8,5.6,1.1c2.3,0.3,4.5,0.5,6.6,0.6h5.5
			c1,0,2,0,3-0.2l-0.3,29.5l-9.3,9.4c-1.5-0.8-3.1-1.2-4.9-1.2c-5.8,0-10.6,4.7-10.6,10.6S45.4,177,51.3,177
			c5.8,0,10.6-4.7,10.6-10.6C61.9,163.9,61.1,161.6,59.7,159.9L59.7,159.9z M51.3,172.9c-3.6,0-6.6-3-6.6-6.6s3-6.6,6.6-6.6
			s6.6,3,6.6,6.6S55,172.9,51.3,172.9z"/>
		<path class="st0" d="M151.7,72.3c-3.8,0-8.3,0.3-13.2,1.3c-6.1,1.3-12.9,3.8-19.7,8.1c-2.8,1.8-5.1,3.5-7.3,5.5
			c-3.8,3.5-7.1,7.1-9.4,10.6c-0.3,0.5-0.8,1-1,1.5c-0.8,1-1.3,2-1.8,3c-0.8,1.5-1.5,3-2.3,4.3c-0.5,1-0.8,1.8-1.3,2.5
			c-0.8,1.8-1.3,3.3-1.8,4.5c-0.2,1-0.5,1.8-0.8,2.5c-0.5,1.5-0.5,2.3-0.5,2.3v31.5l0.5,0.5l9.8,10c-1.1,1.7-1.8,3.7-1.8,5.8
			c0,5.8,4.7,10.6,10.6,10.6s10.6-4.7,10.6-10.6s-4.7-10.6-10.6-10.6c-2,0-4,0.6-5.6,1.6l-9.3-9.5V119c1,0,1.8,0.2,3,0.2h5.5
			c2,0,4.3-0.2,6.6-0.5c1.8-0.2,3.5-0.5,5.6-1c6.3-1.5,13.2-3.8,20-8.3c4.8-3,8.6-6.5,11.6-10.1c3.5-4,6.3-8.1,8.3-11.8
			c1.5-2.8,2.5-5.5,3.3-7.6c0.3-0.3,0.3-0.8,0.3-1c1.3-3.5,1.5-5.5,1.5-5.5S158.3,72.3,151.7,72.3z M111.7,159.7
			c3.6,0,6.6,3,6.6,6.6s-3,6.6-6.6,6.6s-6.6-3-6.6-6.6C105.1,162.7,108.1,159.7,111.7,159.7z"/>
		<path class="st0" d="M82.5,174.4L82.5,174.4l0.6-66.8c5.6-6.5,20.2-26,20.5-53.2C103.9,20.6,82.1,0,82.1,0S59.9,20.2,59.6,53.7
			c-0.3,27.5,14,47.2,19.5,53.8l-0.6,66.8c0,0,0,0,0.1,0c-6,0.9-10.7,6.1-10.7,12.4c0,6.9,5.6,12.5,12.5,12.5s12.5-5.6,12.5-12.5
			C92.8,180.6,88.3,175.4,82.5,174.4z M80.3,194.5c-4.3,0-7.8-3.5-7.8-7.8s3.5-7.8,7.8-7.8s7.8,3.5,7.8,7.8S84.6,194.5,80.3,194.5z"
			/>
	</g>
</g>
<g>
	<g>
		<path class="st2" d="M3691.8-2939.2l3.7-412.9c34.6-40.2,124.9-160.7,126.7-328.9c1.9-208.9-132.9-336.3-132.9-336.3
			s-137.2,124.9-139.1,332c-1.9,170,86.5,291.8,120.5,332.6l-3.7,412.9c-37.7,6.2-66.1,36.5-66.1,75.4c-0.6,43.9,34,77.9,77.3,78.5
			c43.9,0.6,78.5-33.4,79.1-77.3C3757.3-2901.5,3729.5-2933,3691.8-2939.2z M3678.2-2811.8c-28.4,0-51.3-24.1-51.3-51.9
			s24.1-51.3,51.9-50.7c28.4,0,51.3,24.1,51.3,51.9S3706-2811.8,3678.2-2811.8z"/>
		<path class="st2" d="M3605.8-3093.1l3.1-3.1l1.9-196c0,0-1.2-4.9-3.1-14.2c-1.2-4.9-3.1-9.3-4.3-15.5c-3.1-8-6.2-17.3-10.5-28.4
			c-1.2-4.9-4.3-11.1-7.4-15.5c-4.3-8-9.3-17.3-13.6-26.6c-3.1-6.2-7.4-12.4-10.5-18.5c-1.2-3.1-4.3-6.2-6.2-9.3
			c-15.5-21.6-34-45.7-57.5-66.1c-14.2-12.4-27.8-23.5-45.1-34.6c-8-4.9-17.3-11.1-24.7-14.2c-8-4.9-17.3-8-24.7-13
			c-24.7-11.1-48.2-19.2-71.7-24.1c-11.1-3.1-21.6-4.9-32.8-6.8c-3.1,0-6.2-1.9-11.1-1.9c-61.2-6.8-104.5,3.7-104.5,3.7
			s1.2,9.3,6.2,23.5c1.2,3.1,1.2,8,3.1,12.4c7.4,23.5,21.6,56.3,44.5,90.9c1.9,3.1,4.9,6.2,6.2,9.3c23.5,31.5,52.5,64.3,94.6,91.5
			c42,26.6,84.1,42.7,123,52.5c11.1,3.1,23.5,4.9,34.6,6.8c14.2,1.9,27.8,3.1,40.8,3.7c6.2,0,12.4,0,18.5,0c6.2,0,11.1,0,15.5,0
			c6.2,0,12.4,0,18.5-1.2l-1.9,182.4l-58.1,58.7c-12.4-8-27.8-11.1-45.1-8c-26.6,4.3-48.8,27.8-51.9,53.8
			c-6.8,43.3,30.3,79.7,74.2,73.6c28.4-4.3,50.1-26,55-53.8c3.1-17.3-1.2-34-10.5-47L3605.8-3093.1z M3493.3-2949.1
			c-23.5,0-42-19.2-42-42.7s19.2-42,42.7-42s42,19.2,42,42.7C3536-2967,3516.8-2948.4,3493.3-2949.1z"/>
		<path class="st2" d="M4119.5-3570.3c-23.5,0-51.3,1.9-81.6,8c-37.7,8-79.7,23.5-121.8,50.1c-17.3,11.1-31.5,21.6-45.1,34
			c-23.5,21.6-43.9,43.9-58.1,65.5c-1.9,3.1-4.9,6.2-6.2,9.3c-4.9,6.2-8,12.4-11.1,18.5c-4.9,9.3-9.3,18.5-14.2,26.6
			c-3.1,6.2-4.9,11.1-8,15.5c-4.9,11.1-8,20.4-11.1,27.8c-1.2,6.2-3.1,11.1-4.9,15.5c-3.1,9.3-3.1,14.2-3.1,14.2v194.7l3.1,3.1
			l61.2,62.4c-8,11.1-12.4,23.5-12.4,37.1c0,35.9,29.7,65.5,65.5,65.5s65.5-29.7,65.5-65.5s-29.7-65.5-65.5-65.5
			c-12.4,0-23.5,3.1-32.8,9.3l-58.1-59.3v-177.4c6.2,0,11.1,1.2,18.5,1.2c4.9,0,11.1,0,15.5,0c6.2,0,11.1,0,18.5,0
			c12.4,0,26.6-1.2,40.8-3.1c11.1-1.2,21.6-3.1,34.6-6.2c38.9-9.3,81.6-23.5,123.6-51.3c29.7-18.5,53.2-40.2,71.7-62.4
			c21.6-24.7,38.9-50.1,51.3-72.9c9.3-17.3,15.5-34,20.4-47c1.9-1.9,1.9-4.9,1.9-6.2c8-21.6,9.3-34,9.3-34
			S4160.3-3570.3,4119.5-3570.3z M3873.5-3026.3c21.6,0,40.8,17.9,40.8,40.8s-17.9,40.8-40.8,40.8s-40.8-17.9-40.8-40.8
			C3832.1-3008.4,3850.6-3026.3,3873.5-3026.3z"/>
	</g>
	<g>
		<g>
			<path class="st2" d="M6585.6-713.4L6239-1244.6l54.8-282c35.6-3.9,70.9-16.1,102.8-37.4c105.9-70.6,134.4-213.7,63.8-319.5
				c-70.6-105.9-213.7-134.4-319.5-63.8c-105.9,70.6-134.4,213.7-63.8,319.5c29.3,43.9,71,74.5,117.4,90.2c-0.1,0-0.1,0.1-0.2,0.1
				l-35.6,294.1l-3,15.1L6520.5-670L6585.6-713.4z M6188.9-1875.2c66-44,155.3-26.2,199.3,39.8s26.2,155.3-39.8,199.3
				s-155.3,26.2-199.3-39.8C6105.1-1741.9,6122.9-1831.2,6188.9-1875.2z"/>
			<path class="st2" d="M5302.3-834c37.1-24.7,64.6-58.3,81.8-96.1l282.5,59.5l355.6,533l77.9-52l-381-571.1l-15.1-3l-299.2-62.9
				c-0.1-43.8-12.6-88-38.7-127.1c-70.6-105.9-213.7-134.4-319.5-63.8c-105.9,70.6-134.4,213.7-63.8,319.5
				C5053.3-792,5196.4-763.4,5302.3-834z M5094.7-1145.3c66-44,155.3-26.2,199.3,39.8s26.2,155.3-39.8,199.3S5098.9-880,5054.9-946
				C5010.8-1012,5028.6-1101.2,5094.7-1145.3z"/>
			<path class="st2" d="M5606.1-1526.5c0,0.1,0,0.1,0,0.2l4.6-2.9l676.9,1014.7l68.9-46l-676.6-1014.2
				c97.4-89,118.1-238.1,42.6-351.3c-83.3-124.9-252-158.6-376.9-75.3c-124.9,83.3-158.6,252-75.3,376.9
				C5344.7-1512.8,5487.4-1474,5606.1-1526.5z M5402.3-1916.2c77.9-52,183.1-30.9,235.1,46.9c52,77.9,30.9,183.1-47,235.1
				s-183.1,31-235.1-46.9C5303.4-1759,5324.4-1864.3,5402.3-1916.2z"/>
		</g>
		<g>
			<path class="st2" d="M7085.6-5866.4l-598.2-210.7l-128.1-257.1c25.9-24.8,46.4-55.9,58.8-92.2c41-120.4-23.3-251.4-143.8-292.4
				c-120.4-41-251.4,23.3-292.4,143.8c-41,120.4,23.3,251.4,143.8,292.4c49.9,17,101.7,15.9,148.1,0.2c0,0.1-0.1,0.1-0.1,0.2
				l150.7,255.1l6.8,13.8l629.2,221.1L7085.6-5866.4z M6064-6547.1c25.6-75.1,107.3-115.3,182.4-89.7
				c75.1,25.6,115.3,107.3,89.7,182.4c-25.6,75.1-107.3,115.3-182.4,89.7C6078.5-6390.3,6038.4-6471.9,6064-6547.1z"/>
			<path class="st2" d="M5993.8-5181.3c14.4-42.2,15.8-85.6,6.5-126l260.4-124.7l606.5,206.7l30.2-88.6l-649.8-221.4l-13.8,6.8
				l-275.7,132.1c-26.7-34.7-63.6-62.1-108.1-77.3c-120.4-41-251.4,23.3-292.4,143.8c-41,120.4,23.3,251.4,143.8,292.4
				C5821.8-4996.5,5952.7-5060.8,5993.8-5181.3z M5639.7-5302c25.6-75.1,107.3-115.3,182.4-89.7c75.1,25.6,115.3,107.3,89.7,182.4
				c-25.6,75.1-107.3,115.3-182.4,89.7C5654.2-5145.2,5614.1-5226.8,5639.7-5302z"/>
			<path class="st2" d="M5813.6-5915.7c0,0.1,0.1,0.1,0.1,0.2l1.9-5.1l1154.5,393.4l26.7-78.4l-1154-393.3
				c23.2-129.9-51.2-260.8-179.9-304.7c-142.1-48.4-296.5,27.5-344.9,169.6s27.5,296.5,169.6,344.9
				C5614.5-5745.8,5751.4-5801.9,5813.6-5915.7z M5414.7-6101c30.2-88.6,126.5-136,215.1-105.8s136,126.5,105.8,215.1
				s-126.5,136-215.1,105.8C5431.9-5916,5384.5-6012.4,5414.7-6101z"/>
		</g>
		<g>
			<path class="st2" d="M6889.1-2639.5l-1343.8-383.4l-147.6-246.4c23.9-26.7,42-59.4,51.5-96.5c31.6-123.3-42.7-248.8-166-280.4
				s-248.8,42.7-280.4,166s42.7,248.8,166,280.4c51.1,13.1,102.6,8,147.6-11.3c0,0.1,0,0.1-0.1,0.2l170,242.6l7.8,13.2l1375.4,391.3
				L6889.1-2639.5z M5086.8-3458.7c19.7-76.9,98-123.2,174.9-103.5s123.2,98,103.5,174.9s-98,123.2-174.9,103.5
				C5113.4-3303.5,5067.1-3381.8,5086.8-3458.7z"/>
			<path class="st2" d="M5122.6-2091.5c11.1-43.1,9.1-86.6-3.3-126.1l250-144.5l1351.6,378.7l23.2-90.7l-1395.9-390.1l-13.2,7.8
				l-264.6,153.1c-29.3-32.5-68.2-57-113.7-68.7c-123.3-31.6-248.8,42.7-280.4,166s42.7,248.8,166,280.4S5091-1968.3,5122.6-2091.5z
				 M4760.2-2184.4c19.7-76.9,98-123.2,174.9-103.5s123.2,98,103.5,174.9c-19.7,76.9-98,123.2-174.9,103.5
				S4740.5-2107.5,4760.2-2184.4z"/>
			<path class="st2" d="M4886-2809.8l0.1,0.1l1.5-5.2l1912.5,522.5l20.6-80.2l-1911.9-522.3c13.1-131.3-71.2-256.1-203-289.8
				c-145.4-37.3-293.5,50.4-330.7,195.8c-37.3,145.4,50.4,293.5,195.8,330.7C4700.7-2624.9,4832.8-2691.5,4886-2809.8z M4474-2963.6
				c23.2-90.7,115.6-145.4,206.3-122.1c90.7,23.2,145.4,115.6,122.1,206.3s-115.6,145.4-206.3,122.1
				C4505.5-2780.5,4450.8-2872.9,4474-2963.6z"/>
		</g>
		<g>
			<path class="st2" d="M4823.6-5973.3l-325.4,1358.9l-239.9,158.1c-27.7-22.8-61.1-39.4-98.6-47.3
				c-124.5-26.3-246.7,53.3-273,177.9c-26.3,124.5,53.3,246.7,177.9,273c124.5,26.3,246.7-53.3,273-177.9
				c10.9-51.6,3.6-102.9-17.6-147c0.1,0,0.1,0,0.2,0.1l235.1-180.3l12.9-8.4l332-1390.9L4823.6-5973.3z M4082.5-4137.6
				c-77.7-16.4-127.3-92.6-110.9-170.3c16.4-77.7,92.6-127.3,170.3-110.9c77.7,16.4,127.3,92.6,110.9,170.3
				C4236.4-4170.9,4160.1-4121.2,4082.5-4137.6z"/>
			<path class="st2" d="M5446.8-4232c-43.6-9.2-86.9-5.4-125.9,8.7l-155-243.6l320.4-1366.5l-91.6-19.3l-329.9,1411.4l8.4,12.9
				l164.3,257.8c-31.2,30.7-54,70.6-63.7,116.6c-26.3,124.5,53.3,246.7,177.9,273c124.5,26.3,246.7-53.3,273-177.9
				S5571.3-4205.7,5446.8-4232z M5369.5-3865.9c-77.7-16.4-127.3-92.6-110.9-170.3c16.4-77.7,92.6-127.3,170.3-110.9
				c77.7,16.4,127.3,92.6,110.9,170.3C5523.4-3899.2,5447.2-3849.5,5369.5-3865.9z"/>
			<path class="st2" d="M4739.3-3964.9l0.1-0.1l-5.3-1.2l440-1933.1l-81-17.1l-439.8,1932.5c-131.7-7.4-252.8,82.2-280.9,215.2
				c-31,146.9,62.9,291,209.8,322s291-62.9,322-209.8C4931.9-3787.7,4859.8-3916.8,4739.3-3964.9z M4603.3-3546.6
				c-91.6-19.3-150.2-109.3-130.9-200.9c19.3-91.6,109.3-150.2,200.9-130.9c91.6,19.3,150.2,109.3,130.9,200.9
				C4784.9-3585.9,4694.9-3527.3,4603.3-3546.6z"/>
		</g>
		<g>
			<path class="st2" d="M3667.8-6937.6l-325.4,1358.9l-239.9,158.1c-27.7-22.8-61.1-39.4-98.6-47.3
				c-124.5-26.3-246.7,53.3-273,177.9c-26.3,124.5,53.3,246.7,177.9,273s246.7-53.3,273-177.9c10.9-51.6,3.6-102.9-17.6-147
				c0.1,0,0.1,0,0.2,0.1l235.1-180.3l12.9-8.4l332-1390.9L3667.8-6937.6z M2926.7-5101.8c-77.7-16.4-127.3-92.6-110.9-170.3
				c16.4-77.7,92.6-127.3,170.3-110.9s127.3,92.6,110.9,170.3C3080.6-5135.1,3004.3-5085.4,2926.7-5101.8z"/>
			<path class="st2" d="M4291-5196.2c-43.6-9.2-86.9-5.4-125.9,8.7l-155-243.6l320.5-1366.6L4239-6817l-329.9,1411.4l8.4,12.9
				l164.3,257.8c-31.2,30.7-54,70.6-63.7,116.6c-26.3,124.5,53.3,246.7,177.9,273c124.5,26.3,246.7-53.3,273-177.9
				S4415.5-5169.9,4291-5196.2z M4213.7-4830.2c-77.7-16.4-127.3-92.6-110.9-170.3c16.4-77.7,92.6-127.3,170.3-110.9
				c77.7,16.4,127.3,92.6,110.9,170.3C4367.6-4863.4,4291.4-4813.8,4213.7-4830.2z"/>
			<path class="st2" d="M3583.5-4929.1l0.1-0.1l-5.3-1.2l440-1933.1l-81-17.1l-439.8,1932.5c-131.7-7.4-252.8,82.2-280.9,215.2
				c-31,146.9,62.9,291,209.8,322c146.9,31,291-62.9,322-209.8C3776.2-4751.9,3704-4881,3583.5-4929.1z M3447.5-4510.9
				c-91.6-19.3-150.2-109.3-130.9-200.9s109.3-150.2,200.9-130.9c91.6,19.3,150.2,109.3,130.9,200.9
				C3629.1-4550.1,3539.1-4491.5,3447.5-4510.9z"/>
		</g>
		<g>
			<path class="st2" d="M1785.8-7312.6l-325.4,1358.9l-239.9,158.1c-27.7-22.8-61.1-39.4-98.6-47.3
				c-124.5-26.3-246.7,53.3-273,177.9c-26.3,124.5,53.3,246.7,177.9,273c124.5,26.3,246.7-53.3,273-177.9
				c10.9-51.6,3.6-102.9-17.6-147c0.1,0,0.1,0,0.2,0.1l235.1-180.3l12.9-8.4l332-1390.9L1785.8-7312.6z M1044.6-5476.9
				c-77.7-16.4-127.3-92.6-110.9-170.3c16.4-77.7,92.6-127.3,170.3-110.9c77.7,16.4,127.3,92.6,110.9,170.3
				C1198.5-5510.2,1122.3-5460.5,1044.6-5476.9z"/>
			<path class="st2" d="M2409-5571.3c-43.6-9.2-86.9-5.4-125.9,8.7l-155-243.6l320.5-1366.6l-91.6-19.3l-329.9,1411.4l8.4,12.9
				l164.3,257.8c-31.2,30.7-54,70.6-63.7,116.6c-26.3,124.5,53.3,246.7,177.9,273c124.6,26.3,246.7-53.3,273-177.9
				C2613.1-5422.8,2533.5-5545,2409-5571.3z M2331.7-5205.2c-77.7-16.4-127.3-92.6-110.9-170.3c16.4-77.7,92.6-127.3,170.3-110.9
				c77.7,16.4,127.3,92.6,110.9,170.3C2485.6-5238.5,2409.4-5188.8,2331.7-5205.2z"/>
			<path class="st2" d="M1701.5-5304.2l0.1-0.1l-5.3-1.2l440-1933.1l-81-17.1l-439.9,1932.6c-131.7-7.4-252.8,82.2-280.9,215.2
				c-31,146.9,62.9,291,209.8,322c146.9,31,291-62.9,322-209.8C1894.1-5127,1822-5256.1,1701.5-5304.2z M1565.5-4885.9
				c-91.6-19.3-150.2-109.3-130.9-200.9c19.3-91.6,109.3-150.2,200.9-130.9c91.6,19.3,150.2,109.3,130.9,200.9
				C1747.1-4925.2,1657.1-4866.6,1565.5-4885.9z"/>
		</g>
		<g>
			<path class="st2" d="M7916.2-4255.4l-1343.7-383.4l-147.6-246.4c23.9-26.7,42-59.4,51.5-96.5c31.6-123.3-42.7-248.8-166-280.4
				s-248.8,42.7-280.4,166s42.7,248.8,166,280.4c51.1,13.1,102.6,8,147.6-11.3c0,0.1,0,0.1-0.1,0.2l170,242.6l7.8,13.2l1375.4,391.3
				L7916.2-4255.4z M6113.9-5074.6c19.7-76.9,98-123.2,174.9-103.5s123.2,98,103.5,174.9s-98,123.2-174.9,103.5
				S6094.2-4997.7,6113.9-5074.6z"/>
			<path class="st2" d="M6149.8-3707.5c11.1-43.1,9.1-86.6-3.3-126.1l250-144.5l1351.6,378.7l23.2-90.7l-1395.9-390l-13.2,7.8
				l-264.6,153.1c-29.3-32.5-68.2-57-113.7-68.7c-123.3-31.6-248.8,42.7-280.4,166c-31.6,123.3,42.7,248.8,166,280.4
				C5992.7-3509.9,6118.2-3584.2,6149.8-3707.5z M5787.4-3800.3c19.7-76.9,98-123.2,174.9-103.5s123.2,98,103.5,174.9
				s-98,123.2-174.9,103.5C5814-3645.1,5767.7-3723.5,5787.4-3800.3z"/>
			<path class="st2" d="M5913.2-4425.7l0.1,0.1l1.5-5.2l1912.5,522.5l20.6-80.2L5936-4510.8c13.1-131.3-71.2-256.1-203-289.8
				c-145.4-37.3-293.5,50.4-330.7,195.8c-37.3,145.4,50.4,293.5,195.8,330.7C5727.9-4240.9,5860-4307.4,5913.2-4425.7z
				 M5501.2-4579.5c23.2-90.7,115.6-145.4,206.3-122.1c90.7,23.2,145.4,115.6,122.1,206.3c-23.2,90.7-115.6,145.4-206.3,122.1
				C5532.6-4396.5,5478-4488.8,5501.2-4579.5z"/>
		</g>
		<g>
			<path class="st2" d="M3668.3-962.9l312.9-551.7l275.7-80.8c19.8,29.9,46.9,55.6,80.4,74.1c111.3,61.6,251.5,21.4,313.2-90
				c61.6-111.3,21.4-251.5-90-313.2c-111.3-61.6-251.5-21.4-313.2,90c-25.6,46.2-33.6,97.3-26.3,145.7c-0.1,0-0.1-0.1-0.2-0.1
				l-277.6,103.4l-14.8,4.3l-328.6,580.4L3668.3-962.9z M4518.5-1848.6c69.4,38.4,94.6,125.9,56.1,195.3
				c-38.4,69.4-125.9,94.6-195.3,56.1c-69.4-38.5-94.6-125.9-56.1-195.3C4361.6-1861.9,4449.1-1887,4518.5-1848.6z"/>
			<path class="st2" d="M3186.5-2158.5c39,21.6,81.5,30.6,122.9,28.6l76.8,278.3L3075.8-1291l81.9,45.4l332.5-600.6l-4.3-14.8
				l-81.5-294.7c38.8-20.2,72.4-51.6,95.1-92.8c61.6-111.3,21.4-251.5-90-313.2c-111.3-61.6-251.5-21.4-313.2,90
				C3034.9-2360.3,3075.2-2220.1,3186.5-2158.5z M3367.7-2485.8c69.4,38.4,94.6,125.9,56.1,195.3c-38.4,69.4-125.9,94.6-195.3,56.1
				c-69.4-38.4-94.6-125.9-56.1-195.3C3210.8-2499.1,3298.3-2524.2,3367.7-2485.8z"/>
			<path class="st2" d="M3941.2-2206.4c-0.1,0-0.1,0-0.2,0.1l4.7,2.7l-590.8,1067.1l72.5,40.1L4018-2163
				c123.8,45.7,265.8-4.4,331.7-123.4c72.7-131.3,25.2-296.7-106.1-369.4c-131.3-72.7-296.7-25.2-369.4,106.1
				C3809-2432.3,3840.1-2287.7,3941.2-2206.4z M4193.9-2566.3c81.9,45.4,111.5,148.5,66.2,230.4c-45.4,81.9-148.5,111.5-230.4,66.2
				c-81.9-45.4-111.5-148.5-66.2-230.4C4008.8-2582,4112-2611.7,4193.9-2566.3z"/>
		</g>
		<g>
			<path class="st2" d="M1759.1-2195.1l500.9-389l285.5,31.4c6.8,35.2,21.9,69.3,45.7,99.4c79.1,99.7,224,116.4,323.7,37.4
				c99.7-79.1,116.4-224,37.4-323.7c-79.1-99.7-224-116.4-323.7-37.4c-41.3,32.8-68.4,76.9-80.3,124.4c0-0.1-0.1-0.1-0.1-0.2
				l-296-11.3l-15.3-1.8l-526.4,409.4L1759.1-2195.1z M2884.4-2685.8c49.3,62.2,38.9,152.6-23.3,201.9
				c-62.2,49.3-152.6,38.9-201.9-23.3c-49.3-62.2-38.9-152.6,23.3-201.9C2744.7-2758.4,2835.1-2748,2884.4-2685.8z"/>
			<path class="st2" d="M1773.9-3484c27.7,34.9,63.4,59.6,102.5,73.6l-36.1,286.4l-502,398.2l58.2,73.4l537.9-426.6l1.8-15.3
				l38.1-303.3c43.6-3.7,86.6-19.8,123.5-49c99.7-79.1,116.4-224,37.4-323.7c-79-99.7-224-116.4-323.7-37.4
				C1711.5-3728.6,1694.8-3583.7,1773.9-3484z M2067-3716.5c49.3,62.2,38.9,152.6-23.3,201.9c-62.2,49.3-152.6,38.9-201.9-23.3
				s-38.9-152.6,23.3-201.9C1927.3-3789.1,2017.7-3778.7,2067-3716.5z"/>
			<path class="st2" d="M2489-3238.1c-0.1,0-0.1,0-0.2,0l3.3,4.3l-955.7,757.9l51.5,64.9l955.2-757.6c96.7,89.8,247,98.1,353.6,13.6
				c117.6-93.3,137.3-264.2,44.1-381.8c-93.3-117.6-264.2-137.3-381.8-44.1C2453.8-3497.4,2426.9-3352,2489-3238.1z M2860.6-3473.2
				c58.2,73.4,45.9,180-27.5,238.2s-180,45.9-238.2-27.5s-45.9-180,27.5-238.2S2802.5-3546.5,2860.6-3473.2z"/>
		</g>
		<g>
			<path class="st2" d="M3333.9-5903.2l634.2-6.9l208.4,197.7c-15.9,32.1-24.5,68.5-23.7,106.8c2.7,127.2,108,228.2,235.2,225.5
				c127.2-2.7,228.2-108,225.5-235.2c-2.7-127.2-108-228.2-235.2-225.5c-52.8,1.1-101,19.9-139.2,50.5c0-0.1,0-0.1,0-0.2l-228.9-188
				l-11.1-10.7l-666.9,7.7L3333.9-5903.2z M4526.9-5613.5c1.7,79.4-61.3,145-140.7,146.7s-145-61.3-146.7-140.7
				c-1.7-79.4,61.3-145,140.7-146.7C4459.6-5755.9,4525.3-5692.9,4526.9-5613.5z"/>
			<path class="st2" d="M4125.2-6920.8c0.9,44.5,14.5,85.8,37.1,120.6l-202,206.3l-640.6,13.5l2,93.6l686.3-14.5l10.7-11.1
				l213.8-218.5c37,23.4,81,36.6,128,35.6c127.2-2.7,228.2-108,225.5-235.2c-2.7-127.2-108-228.2-235.2-225.5
				C4223.6-7153.3,4122.5-7048,4125.2-6920.8z M4499.2-6928.7c1.7,79.4-61.3,145-140.7,146.7s-145-61.3-146.7-140.7
				c-1.7-79.4,61.3-145,140.7-146.7C4431.9-7071,4497.6-7008,4499.2-6928.7z"/>
			<path class="st2" d="M4546-6292.5l-0.1-0.1v5.4l-1219.5,25.7l1.7,82.8l1218.9-25.7c22.7,130,137.4,227.5,273.4,224.7
				c150.1-3.2,269.2-127.4,266-277.4s-127.4-269.2-277.4-266C4674.8-6520.3,4565.5-6420.7,4546-6292.5z M4984.2-6255
				c2,93.6-72.3,171.1-165.9,173.1s-171.1-72.3-173.1-165.9s72.3-171.1,165.9-173.1S4982.2-6348.6,4984.2-6255z"/>
		</g>
		<g>
			<path class="st2" d="M2081.1-3342l385.8-503.4l284.2-42.1c15.5,32.3,38.8,61.5,69.4,84.5c101.8,76.4,246.2,55.8,322.6-46
				c76.4-101.8,55.8-246.2-46-322.6s-246.2-55.8-322.6,46c-31.7,42.2-46.7,91.7-46.1,140.7l-0.1-0.1l-289.2,64.2l-15.2,2.2
				L2018.6-3389L2081.1-3342z M3045.1-4102.2c63.5,47.6,76.3,137.7,28.7,201.2s-137.7,76.3-201.2,28.7
				c-63.5-47.6-76.3-137.7-28.7-201.2C2891.5-4137,2981.6-4149.9,3045.1-4102.2z"/>
			<path class="st2" d="M1768.4-4592.5c35.6,26.7,76.5,41.6,117.8,45.2l37.7,286.2l-384.6,512.5l74.9,56.2l412-549.1l-2.2-15.2
				l-40.1-303.1c41.2-14.6,78.8-41.2,107-78.8c76.4-101.8,55.8-246.2-46-322.6s-246.2-55.8-322.6,46
				C1646-4813.3,1666.6-4668.9,1768.4-4592.5z M1993-4891.8c63.5,47.6,76.3,137.7,28.7,201.2s-137.7,76.3-201.2,28.7
				c-63.5-47.6-76.3-137.7-28.7-201.2C1839.4-4926.6,1929.5-4939.4,1993-4891.8z"/>
			<path class="st2" d="M2522.5-4536.1c-0.1,0-0.1,0-0.2,0l4.2,3.4l-732,975.6l66.2,49.7l731.8-975.1
				c116.3,62.3,263.8,32.2,345.5-76.6c90.1-120.1,65.8-290.4-54.2-380.5c-120.1-90.1-290.4-65.8-380.5,54.2
				C2422.7-4778,2433.6-4630.5,2522.5-4536.1z M2822.3-4857.8c74.9,56.2,90,162.5,33.8,237.3c-56.2,74.9-162.5,90-237.3,33.8
				c-74.9-56.2-90-162.5-33.8-237.3C2641.2-4898.9,2747.5-4914,2822.3-4857.8z"/>
		</g>
		<g>
			<path class="st2" d="M2937.4-719.7l-146.3-617.2l147-246.8c34.8,8.4,72.2,8.8,109.4-0.4c123.5-30.6,198.8-155.6,168.2-279.1
				s-155.6-198.8-279.1-168.2c-123.5,30.6-198.8,155.6-168.2,279.1c12.7,51.2,41.6,94.1,79.9,124.7c-0.1,0-0.1,0-0.2,0l-133,264.7
				l-7.9,13.2l154.3,648.8L2937.4-719.7z M2957.5-1947.2c77-19.1,155,27.9,174.1,104.9s-27.9,155-104.9,174.1s-155-27.9-174.1-104.9
				C2833.4-1850.2,2880.4-1928.1,2957.5-1947.2z"/>
			<path class="st2" d="M1770.7-1267.7c43.2-10.7,80.5-33,109.5-62.7l245.7,151.6L2280-556.9l90.9-22.5l-165.1-666.3l-13.2-7.9
				L1932.3-1414c14.7-41.2,17.9-87,6.6-132.7c-30.6-123.5-155.6-198.8-279.1-168.2c-123.5,30.6-198.8,155.6-168.2,279.1
				C1522.2-1312.4,1647.2-1237.1,1770.7-1267.7z M1680.7-1630.8c77-19.1,155,27.9,174.1,104.9c19.1,77-27.9,155-104.9,174.1
				s-155-27.9-174.1-104.9C1556.7-1533.8,1603.6-1611.7,1680.7-1630.8z"/>
			<path class="st2" d="M2291-1816.4c0,0.1-0.1,0.1-0.1,0.2l5.3-1.2l293.4,1183.9l80.4-19.9l-293.3-1183.4
				c121.8-50.7,191.7-184.1,159-316.1c-36.1-145.7-183.5-234.5-329.2-198.4s-234.5,183.5-198.4,329.2
				C2040.4-1892,2161.6-1807.2,2291-1816.4z M2231.1-2252.1c90.9-22.5,182.8,32.9,205.3,123.8c22.5,90.9-32.9,182.8-123.8,205.3
				s-182.8-32.9-205.3-123.8C2084.8-2137.7,2140.3-2229.6,2231.1-2252.1z"/>
		</g>
		<g>
			<path class="st2" d="M7512.3-2301.1l-112.9-624.1l160-238.6c34.3,10.3,71.6,12.7,109.2,5.5c125-23.9,206.9-144.6,183-269.6
				s-144.6-206.9-269.6-183s-206.9,144.6-183,269.6c9.9,51.8,36.5,96.2,73.1,128.8c-0.1,0-0.1,0-0.2,0l-147.1,257.2l-8.6,12.7
				l119.2,656.2L7512.3-2301.1z M7598.3-3525.7c78-14.9,153.3,36.2,168.2,114.1c14.9,78-36.2,153.3-114.1,168.2
				s-153.3-36.2-168.2-114.1C7469.3-3435.5,7520.4-3510.8,7598.3-3525.7z"/>
			<path class="st2" d="M6214.9-3054.6c43.7-8.4,82.2-28.6,112.7-56.7l399,308.4l120.5,629.3l92-17.6L6810-2865.4l-12.7-8.6
				l-413-317.9c16.9-40.4,22.5-86,13.7-132.2c-23.9-125-144.6-206.9-269.6-183s-206.9,144.6-183,269.6S6090-3030.7,6214.9-3054.6z
				 M6144.6-3422.1c78-14.9,153.3,36.2,168.2,114.1c14.9,78-36.2,153.3-114.1,168.2c-78,14.9-153.3-36.2-168.2-114.1
				C6015.5-3331.9,6066.6-3407.2,6144.6-3422.1z"/>
			<path class="st2" d="M6925.8-3430.9c0,0.1-0.1,0.1-0.1,0.2l5.3-0.9l229.4,1198l81.3-15.6l-229.3-1197.4
				c124.4-44.1,201.3-173.5,175.7-307.1c-28.2-147.4-170.6-244-318-215.8s-244,170.6-215.8,318
				C6679.6-3519.8,6796-3428.6,6925.8-3430.9z M6889.4-3869.2c92-17.6,180.8,42.7,198.4,134.6c17.6,92-42.7,180.8-134.6,198.4
				s-180.8-42.7-198.4-134.6C6737.2-3762.8,6797.4-3851.6,6889.4-3869.2z"/>
		</g>
	</g>
</g>
</svg>
